<?xml version="1.0" standalone="no"?>
<!DOCTYPE svg PUBLIC "-//W3C//DTD SVG 20010904//EN"
 "http://www.w3.org/TR/2001/REC-SVG-20010904/DTD/svg10.dtd">
<svg version="1.0" xmlns="http://www.w3.org/2000/svg"
 width="300.000000pt" height="300.000000pt" viewBox="0 0 300.000000 300.000000"
 preserveAspectRatio="xMidYMid meet">

<g transform="translate(0.000000,300.000000) scale(0.100000,-0.100000)"
fill="#000000" stroke="none">
<path d="M0 1500 l0 -1500 1500 0 1500 0 0 1500 0 1500 -1500 0 -1500 0 0
-1500z m1743 1329 c463 -93 833 -463 926 -926 29 -140 29 -346 0 -486 -80
-395 -353 -718 -737 -871 -259 -103 -605 -103 -864 0 -321 128 -554 361 -682
682 -103 259 -103 605 0 864 152 381 473 655 864 737 135 28 356 28 493 0z"/>
<path d="M1296 2744 c-143 -28 -285 -86 -411 -169 -77 -50 -250 -223 -300
-300 -126 -192 -185 -389 -185 -615 0 -226 59 -423 185 -615 50 -77 223 -250
300 -300 192 -126 389 -185 615 -185 226 0 423 59 615 185 77 50 250 223 300
300 190 291 238 642 130 965 -56 168 -133 289 -269 426 -172 171 -347 264
-579 309 -97 19 -306 18 -401 -1z m-84 -1121 l258 -257 253 252 c139 138 260
252 269 252 35 0 48 -12 48 -44 0 -28 -30 -62 -273 -304 -206 -205 -279 -272
-297 -272 -18 0 -90 67 -300 281 -151 155 -276 290 -278 299 -4 21 23 50 46
50 9 0 132 -116 274 -257z"/>
</g>
</svg>
